<svg width="200" height="200" viewBox="0 0 200 200" fill="none" xmlns="http://www.w3.org/2000/svg">
<path d="M18 46C18 40.4772 22.4772 36 28 36H154C159.523 36 164 40.4772 164 46V131C164 136.523 159.523 141 154 141H28C22.4771 141 18 136.523 18 131V46Z" fill="#B8F5D1"/>
<path d="M18 46C18 40.4772 22.4772 36 28 36H154C159.523 36 164 40.4772 164 46V131C164 136.523 159.523 141 154 141H28C22.4771 141 18 136.523 18 131V46Z" fill="url(#paint0_linear)"/>
<path d="M80 141H102V156H80V141Z" fill="#B8F5D1"/>
<path d="M80 141H102V156H80V141Z" fill="url(#paint1_linear)"/>
<path d="M58 156H124V164H58V156Z" fill="#B8F5D1"/>
<path d="M58 156H124V164H58V156Z" fill="url(#paint2_linear)"/>
<path d="M149 86C149 80.4772 153.477 76 159 76C164.523 76 169 80.4772 169 86V154C169 159.523 164.523 164 159 164C153.477 164 149 159.523 149 154V86Z" fill="#5AE693"/>
<path d="M149 86C149 80.4772 153.477 76 159 76C164.523 76 169 80.4772 169 86V154C169 159.523 164.523 164 159 164C153.477 164 149 159.523 149 154V86Z" fill="url(#paint3_linear)"/>
<path d="M151.206 51.5C154.67 45.5 163.33 45.5 166.794 51.5L181.517 77C184.981 83 180.651 90.5 173.722 90.5H144.278C137.349 90.5 133.019 83 136.483 77L151.206 51.5Z" fill="#5AE693"/>
<path d="M151.206 51.5C154.67 45.5 163.33 45.5 166.794 51.5L181.517 77C184.981 83 180.651 90.5 173.722 90.5H144.278C137.349 90.5 133.019 83 136.483 77L151.206 51.5Z" fill="url(#paint4_linear)"/>
<path d="M34 56.5C34 54.567 35.567 53 37.5 53H95.5C97.433 53 99 54.567 99 56.5C99 58.433 97.433 60 95.5 60H37.5C35.567 60 34 58.433 34 56.5Z" fill="#88F3B4"/>
<path d="M34 56.5C34 54.567 35.567 53 37.5 53H95.5C97.433 53 99 54.567 99 56.5C99 58.433 97.433 60 95.5 60H37.5C35.567 60 34 58.433 34 56.5Z" fill="url(#paint5_linear)"/>
<path d="M34 69.5C34 67.567 35.567 66 37.5 66H104.5C106.433 66 108 67.567 108 69.5C108 71.433 106.433 73 104.5 73H37.5C35.567 73 34 71.433 34 69.5Z" fill="#88F3B4"/>
<path d="M34 69.5C34 67.567 35.567 66 37.5 66H104.5C106.433 66 108 67.567 108 69.5C108 71.433 106.433 73 104.5 73H37.5C35.567 73 34 71.433 34 69.5Z" fill="url(#paint6_linear)"/>
<path d="M34 82.5C34 80.567 35.567 79 37.5 79H56.5C58.433 79 60 80.567 60 82.5C60 84.433 58.433 86 56.5 86H37.5C35.567 86 34 84.433 34 82.5Z" fill="#88F3B4"/>
<path d="M34 82.5C34 80.567 35.567 79 37.5 79H56.5C58.433 79 60 80.567 60 82.5C60 84.433 58.433 86 56.5 86H37.5C35.567 86 34 84.433 34 82.5Z" fill="url(#paint7_linear)"/>
<path d="M34 95.5C34 93.567 35.567 92 37.5 92H75.5C77.433 92 79 93.567 79 95.5C79 97.433 77.433 99 75.5 99H37.5C35.567 99 34 97.433 34 95.5Z" fill="#88F3B4"/>
<path d="M34 95.5C34 93.567 35.567 92 37.5 92H75.5C77.433 92 79 93.567 79 95.5C79 97.433 77.433 99 75.5 99H37.5C35.567 99 34 97.433 34 95.5Z" fill="url(#paint8_linear)"/>
<defs>
<linearGradient id="paint0_linear" x1="91" y1="36" x2="91" y2="141" gradientUnits="userSpaceOnUse">
<stop stop-color="#D7FCE6"/>
<stop offset="1" stop-color="white" stop-opacity="0"/>
</linearGradient>
<linearGradient id="paint1_linear" x1="91" y1="141" x2="91" y2="156" gradientUnits="userSpaceOnUse">
<stop stop-color="#D7FCE6"/>
<stop offset="1" stop-color="white" stop-opacity="0"/>
</linearGradient>
<linearGradient id="paint2_linear" x1="91" y1="156" x2="91" y2="164" gradientUnits="userSpaceOnUse">
<stop stop-color="#D7FCE6"/>
<stop offset="1" stop-color="white" stop-opacity="0"/>
</linearGradient>
<linearGradient id="paint3_linear" x1="159" y1="76" x2="159" y2="164" gradientUnits="userSpaceOnUse">
<stop stop-color="#B8F5D1"/>
<stop offset="1" stop-color="white" stop-opacity="0"/>
</linearGradient>
<linearGradient id="paint4_linear" x1="159" y1="47" x2="159" y2="90.5" gradientUnits="userSpaceOnUse">
<stop stop-color="#B8F5D1"/>
<stop offset="1" stop-color="white" stop-opacity="0"/>
</linearGradient>
<linearGradient id="paint5_linear" x1="66.5" y1="53" x2="66.5" y2="60" gradientUnits="userSpaceOnUse">
<stop stop-color="#CDF3DD"/>
<stop offset="1" stop-color="white" stop-opacity="0"/>
</linearGradient>
<linearGradient id="paint6_linear" x1="71" y1="66" x2="71" y2="73" gradientUnits="userSpaceOnUse">
<stop stop-color="#CDF3DD"/>
<stop offset="1" stop-color="white" stop-opacity="0"/>
</linearGradient>
<linearGradient id="paint7_linear" x1="47" y1="79" x2="47" y2="86" gradientUnits="userSpaceOnUse">
<stop stop-color="#CDF3DD"/>
<stop offset="1" stop-color="white" stop-opacity="0"/>
</linearGradient>
<linearGradient id="paint8_linear" x1="56.5" y1="92" x2="56.5" y2="99" gradientUnits="userSpaceOnUse">
<stop stop-color="#CDF3DD"/>
<stop offset="1" stop-color="white" stop-opacity="0"/>
</linearGradient>
</defs>
</svg>
