<svg width="50" height="50" viewBox="0 0 50 50" fill="none" xmlns="http://www.w3.org/2000/svg">
<rect width="26" height="6" rx="2" transform="matrix(1 0 0 -1 12 50)" fill="url(#paint0_linear)"/>
<rect x="1" y="1" width="48" height="43" rx="2" fill="url(#paint1_linear)"/>
<path d="M25 38C16.729 38 10 31.271 10 23C10 14.729 16.729 8 25 8C33.271 8 40 14.729 40 23C40 31.271 33.271 38 25 38Z" fill="url(#paint2_linear)"/>
<path d="M25 33C19.486 33 15 28.514 15 23C15 17.486 19.486 13 25 13C30.514 13 35 17.486 35 23C35 28.514 30.514 33 25 33Z" fill="url(#paint3_linear)"/>
<defs>
<linearGradient id="paint0_linear" x1="13" y1="0" x2="13" y2="6" gradientUnits="userSpaceOnUse">
<stop stop-color="#FFF1C0"/>
<stop offset="1" stop-color="#FFFFEA"/>
</linearGradient>
<linearGradient id="paint1_linear" x1="25" y1="1" x2="25" y2="44" gradientUnits="userSpaceOnUse">
<stop stop-color="#C7FF51"/>
<stop offset="1" stop-color="#FFC807"/>
</linearGradient>
<linearGradient id="paint2_linear" x1="25" y1="38" x2="25" y2="8" gradientUnits="userSpaceOnUse">
<stop stop-color="#AEB83B"/>
<stop offset="1" stop-color="#F9FFE2"/>
</linearGradient>
<linearGradient id="paint3_linear" x1="25" y1="33" x2="25" y2="13" gradientUnits="userSpaceOnUse">
<stop stop-color="#AEB83B"/>
<stop offset="1" stop-color="#F9FFE2"/>
</linearGradient>
</defs>
</svg>
